<svg width="118" height="46" viewBox="0 0 118 46" fill="none" xmlns="http://www.w3.org/2000/svg">
<path d="M32 23.25C34.4609 23.25 36.5 21.2461 36.5 18.75C36.5 16.2891 34.4609 14.25 32 14.25C29.5039 14.25 27.5 16.2891 27.5 18.75C27.5 21.2461 29.5039 23.25 32 23.25ZM35.1289 24.375H34.5312C33.7578 24.7617 32.9141 24.9375 32 24.9375C31.0859 24.9375 30.207 24.7617 29.4336 24.375H28.8359C26.2344 24.375 24.125 26.5195 24.125 29.1211V30.5625C24.125 31.5117 24.8633 32.25 25.8125 32.25H38.1875C39.1016 32.25 39.875 31.5117 39.875 30.5625V29.1211C39.875 26.5195 37.7305 24.375 35.1289 24.375Z" fill="url(#paint0_linear_0_73)"/>
<path d="M51.4133 29V17.264H54.0593V26.768H58.7033V29H51.4133ZM64.1017 29.216C63.5377 29.216 62.9917 29.114 62.4637 28.91C61.9357 28.694 61.4677 28.388 61.0597 27.992C60.6637 27.596 60.3457 27.11 60.1057 26.534C59.8657 25.946 59.7457 25.28 59.7457 24.536C59.7457 23.792 59.8657 23.132 60.1057 22.556C60.3457 21.968 60.6637 21.476 61.0597 21.08C61.4677 20.684 61.9357 20.384 62.4637 20.18C62.9917 19.964 63.5377 19.856 64.1017 19.856C64.6657 19.856 65.2057 19.964 65.7217 20.18C66.2497 20.384 66.7117 20.684 67.1077 21.08C67.5157 21.476 67.8397 21.968 68.0797 22.556C68.3197 23.132 68.4397 23.792 68.4397 24.536C68.4397 25.28 68.3197 25.946 68.0797 26.534C67.8397 27.11 67.5157 27.596 67.1077 27.992C66.7117 28.388 66.2497 28.694 65.7217 28.91C65.2057 29.114 64.6657 29.216 64.1017 29.216ZM64.1017 27.074C64.6417 27.074 65.0497 26.846 65.3257 26.39C65.6017 25.934 65.7397 25.316 65.7397 24.536C65.7397 23.756 65.6017 23.138 65.3257 22.682C65.0497 22.226 64.6417 21.998 64.1017 21.998C63.5497 21.998 63.1357 22.226 62.8597 22.682C62.5957 23.138 62.4637 23.756 62.4637 24.536C62.4637 25.316 62.5957 25.934 62.8597 26.39C63.1357 26.846 63.5497 27.074 64.1017 27.074ZM73.438 32.798C72.91 32.798 72.418 32.75 71.962 32.654C71.518 32.57 71.122 32.438 70.774 32.258C70.438 32.078 70.174 31.844 69.982 31.556C69.79 31.268 69.694 30.926 69.694 30.53C69.694 29.81 70.12 29.21 70.972 28.73V28.658C70.732 28.502 70.534 28.304 70.378 28.064C70.222 27.824 70.144 27.518 70.144 27.146C70.144 26.822 70.24 26.516 70.432 26.228C70.624 25.928 70.864 25.676 71.152 25.472V25.4C70.84 25.184 70.558 24.878 70.306 24.482C70.066 24.074 69.946 23.606 69.946 23.078C69.946 22.538 70.048 22.07 70.252 21.674C70.456 21.266 70.726 20.93 71.062 20.666C71.41 20.39 71.806 20.186 72.25 20.054C72.694 19.922 73.156 19.856 73.636 19.856C74.164 19.856 74.626 19.928 75.022 20.072H78.28V21.998H76.858C76.942 22.13 77.008 22.298 77.056 22.502C77.116 22.706 77.146 22.928 77.146 23.168C77.146 23.684 77.056 24.134 76.876 24.518C76.696 24.89 76.444 25.202 76.12 25.454C75.808 25.694 75.436 25.874 75.004 25.994C74.584 26.114 74.128 26.174 73.636 26.174C73.288 26.174 72.928 26.114 72.556 25.994C72.436 26.09 72.352 26.186 72.304 26.282C72.256 26.378 72.232 26.504 72.232 26.66C72.232 26.888 72.328 27.056 72.52 27.164C72.724 27.272 73.078 27.326 73.582 27.326H75.022C76.126 27.326 76.966 27.506 77.542 27.866C78.13 28.214 78.424 28.79 78.424 29.594C78.424 30.062 78.304 30.488 78.064 30.872C77.836 31.268 77.506 31.604 77.074 31.88C76.642 32.168 76.12 32.39 75.508 32.546C74.896 32.714 74.206 32.798 73.438 32.798ZM73.636 24.572C73.984 24.572 74.272 24.452 74.5 24.212C74.74 23.96 74.86 23.582 74.86 23.078C74.86 22.61 74.74 22.256 74.5 22.016C74.272 21.764 73.984 21.638 73.636 21.638C73.288 21.638 72.994 21.758 72.754 21.998C72.526 22.238 72.412 22.598 72.412 23.078C72.412 23.582 72.526 23.96 72.754 24.212C72.994 24.452 73.288 24.572 73.636 24.572ZM73.852 31.142C74.452 31.142 74.944 31.034 75.328 30.818C75.712 30.614 75.904 30.356 75.904 30.044C75.904 29.768 75.784 29.582 75.544 29.486C75.316 29.39 74.98 29.342 74.536 29.342H73.618C73.306 29.342 73.054 29.33 72.862 29.306C72.67 29.294 72.502 29.27 72.358 29.234C72.034 29.522 71.872 29.816 71.872 30.116C71.872 30.452 72.052 30.704 72.412 30.872C72.772 31.052 73.252 31.142 73.852 31.142ZM79.8673 29V20.072H82.5133V29H79.8673ZM81.1813 18.758C80.7373 18.758 80.3713 18.632 80.0833 18.38C79.7953 18.116 79.6513 17.78 79.6513 17.372C79.6513 16.964 79.7953 16.634 80.0833 16.382C80.3713 16.13 80.7373 16.004 81.1813 16.004C81.6373 16.004 82.0033 16.13 82.2793 16.382C82.5673 16.634 82.7113 16.964 82.7113 17.372C82.7113 17.78 82.5673 18.116 82.2793 18.38C82.0033 18.632 81.6373 18.758 81.1813 18.758ZM84.8419 29V20.072H87.0019L87.1819 21.206H87.2539C87.6379 20.846 88.0579 20.534 88.5139 20.27C88.9699 19.994 89.5039 19.856 90.1159 19.856C91.0879 19.856 91.7899 20.174 92.2219 20.81C92.6659 21.446 92.8879 22.328 92.8879 23.456V29H90.2419V23.798C90.2419 23.15 90.1519 22.706 89.9719 22.466C89.8039 22.226 89.5279 22.106 89.1439 22.106C88.8079 22.106 88.5199 22.184 88.2799 22.34C88.0399 22.484 87.7759 22.694 87.4879 22.97V29H84.8419Z" fill="url(#paint1_linear_0_73)"/>
<rect x="0.5" y="0.5" width="117" height="45" rx="7.5" stroke="#FFAC0D"/>
<defs>
<linearGradient id="paint0_linear_0_73" x1="16.9718" y1="-8.35003" x2="47.9034" y2="-6.98483" gradientUnits="userSpaceOnUse">
<stop stop-color="#FFB800"/>
<stop offset="1" stop-color="#FF8A00"/>
</linearGradient>
<linearGradient id="paint1_linear_0_73" x1="30.6723" y1="-8.35003" x2="114.663" y2="1.84426" gradientUnits="userSpaceOnUse">
<stop stop-color="#FFB800"/>
<stop offset="1" stop-color="#FF8A00"/>
</linearGradient>
</defs>
</svg>
